<svg xmlns="http://www.w3.org/2000/svg" viewBox="0 0 512 512">
  <defs>
    <linearGradient id="bgGradient" x1="0%" y1="0%" x2="100%" y2="100%">
      <stop offset="0%" style="stop-color:#667eea"/>
      <stop offset="50%" style="stop-color:#764ba2"/>
      <stop offset="100%" style="stop-color:#f093fb"/>
    </linearGradient>
    <filter id="shadow" x="-20%" y="-20%" width="140%" height="140%">
      <feDropShadow dx="0" dy="8" stdDeviation="12" flood-color="#667eea" flood-opacity="0.3"/>
    </filter>
  </defs>

  <!-- Background rounded square -->
  <rect x="32" y="32" width="448" height="448" rx="96" ry="96" fill="url(#bgGradient)" filter="url(#shadow)"/>

  <!-- Chat bubble icon -->
  <g transform="translate(96, 96) scale(0.625)">
    <!-- Main bubble -->
    <path d="M416 128H96c-35.3 0-64 28.7-64 64v192c0 35.3 28.7 64 64 64h32v80c0 8.8 7.2 16 16 16 4.3 0 8.4-1.7 11.4-4.8L236.3 448H416c35.3 0 64-28.7 64-64V192c0-35.3-28.7-64-64-64z" fill="white"/>

    <!-- Chat dots -->
    <circle cx="160" cy="288" r="24" fill="url(#bgGradient)"/>
    <circle cx="256" cy="288" r="24" fill="url(#bgGradient)"/>
    <circle cx="352" cy="288" r="24" fill="url(#bgGradient)"/>
  </g>
</svg>
